<?xml version="1.0" encoding="UTF-8"?>
<svg width="24px" height="25px" viewBox="0 0 24 25" version="1.1" xmlns="http://www.w3.org/2000/svg" xmlns:xlink="http://www.w3.org/1999/xlink">
    <!-- Generator: Sketch 54.1 (76490) - https://sketchapp.com -->
    <title>logo</title>
    <desc>Created with Sketch.</desc>
    <g id="Landing-podcast" stroke="none" stroke-width="1" fill="none" fill-rule="evenodd">
        <g id="UI-Kit_draft" transform="translate(-537.000000, -1375.000000)">
            <g id="mobileNav-bar_expanded" transform="translate(521.000000, 1367.000000)">
                <g id="logo" transform="translate(16.000000, 8.121212)">
                    <ellipse id="Oval-Copy" fill="#FFFFFF" cx="12" cy="12.1818182" rx="12" ry="12.1818182"></ellipse>
                    <path d="M6.66666667,8.12121212 L7.82933333,8.12121212 L7.82933333,11.4346667 L7.88266667,11.4346667 C8.00355616,11.0953788 8.20088752,10.8336979 8.47466667,10.6496162 C8.74844581,10.4655344 9.07022037,10.3734949 9.44,10.3734949 C10.1440035,10.3734949 10.6879981,10.6315664 11.072,11.1477172 C11.4560019,11.6638679 11.648,12.3875509 11.648,13.3187879 C11.648,14.2500249 11.4560019,14.9737079 11.072,15.4898586 C10.6879981,16.0060093 10.1440035,16.2640808 9.44,16.2640808 C9.07022037,16.2640808 8.74844581,16.1702366 8.47466667,15.9825455 C8.20088752,15.7948543 8.00355616,15.5349781 7.88266667,15.2029091 L7.82933333,15.2029091 L7.82933333,16.1341414 L6.66666667,16.1341414 L6.66666667,8.12121212 Z M9.088,15.2462222 C9.49333536,15.2462222 9.81688768,15.1144794 10.0586667,14.8509899 C10.3004457,14.5875004 10.4213333,14.2391941 10.4213333,13.8060606 L10.4213333,12.8315152 C10.4213333,12.3983817 10.3004457,12.0500754 10.0586667,11.7865859 C9.81688768,11.5230963 9.49333536,11.3913535 9.088,11.3913535 C8.73244267,11.3913535 8.43377899,11.4797836 8.192,11.6566465 C7.95022101,11.8335093 7.82933333,12.0663151 7.82933333,12.3550707 L7.82933333,14.2825051 C7.82933333,14.5712607 7.95022101,14.8040665 8.192,14.9809293 C8.43377899,15.1577921 8.73244267,15.2462222 9.088,15.2462222 Z M16.4693333,15.2029091 L16.416,15.2029091 C16.2951105,15.5349781 16.0977791,15.7948543 15.824,15.9825455 C15.5502209,16.1702366 15.2284463,16.2640808 14.8586667,16.2640808 C14.1546631,16.2640808 13.6106686,16.0060093 13.2266667,15.4898586 C12.8426647,14.9737079 12.6506667,14.2500249 12.6506667,13.3187879 C12.6506667,12.3875509 12.8426647,11.6638679 13.2266667,11.1477172 C13.6106686,10.6315664 14.1546631,10.3734949 14.8586667,10.3734949 C15.2284463,10.3734949 15.5502209,10.4655344 15.824,10.6496162 C16.0977791,10.8336979 16.2951105,11.0953788 16.416,11.4346667 L16.4693333,11.4346667 L16.4693333,8.12121212 L17.632,8.12121212 L17.632,16.1341414 L16.4693333,16.1341414 L16.4693333,15.2029091 Z M15.2106667,15.2462222 C15.566224,15.2462222 15.8648877,15.1577921 16.1066667,14.9809293 C16.3484457,14.8040665 16.4693333,14.5712607 16.4693333,14.2825051 L16.4693333,12.3550707 C16.4693333,12.0663151 16.3484457,11.8335093 16.1066667,11.6566465 C15.8648877,11.4797836 15.566224,11.3913535 15.2106667,11.3913535 C14.8053313,11.3913535 14.481779,11.5230963 14.24,11.7865859 C13.998221,12.0500754 13.8773333,12.3983817 13.8773333,12.8315152 L13.8773333,13.8060606 C13.8773333,14.2391941 13.998221,14.5875004 14.24,14.8509899 C14.481779,15.1144794 14.8053313,15.2462222 15.2106667,15.2462222 Z" id="bd" fill="#0000EC" fill-rule="nonzero"></path>
                </g>
            </g>
        </g>
    </g>
</svg>